<svg width="461" height="461" viewBox="0 0 461 461" fill="none" xmlns="http://www.w3.org/2000/svg">
<path d="M135.88 94.4346C210.924 42.2798 314.039 60.8354 366.194 135.88C418.349 210.924 399.793 314.039 324.749 366.194C249.705 418.349 146.589 399.793 94.4345 324.749C42.2796 249.705 60.8353 146.589 135.88 94.4346ZM309.984 344.95C373.296 300.949 388.95 213.956 344.95 150.644C300.949 87.3329 213.956 71.6784 150.644 115.679C87.3328 159.68 71.6783 246.673 115.679 309.985C159.679 373.296 246.673 388.95 309.984 344.95Z" fill="#1633B7"/>
<path d="M168.104 140.63C217.565 106.255 285.528 118.485 319.903 167.946C354.277 217.407 342.047 285.37 292.586 319.744C243.125 354.119 175.163 341.889 140.788 292.428C106.414 242.967 118.643 175.005 168.104 140.63ZM282.855 305.742C324.583 276.742 334.901 219.405 305.901 177.677C276.9 135.949 219.564 125.632 177.836 154.632C136.108 183.632 125.79 240.969 154.79 282.697C183.791 324.425 241.127 334.743 282.855 305.742Z" fill="#F7EFCE"/>
</svg>
